<svg width="81" height="80" viewBox="0 0 81 80" fill="none" xmlns="http://www.w3.org/2000/svg">
<g clip-path="url(#clip0_109_114)">
<path d="M78.8869 25.1761C76.112 22.4345 71.5968 22.4347 68.8211 25.1767C67.9673 26.0209 62.5165 31.4105 61.6838 32.2339V13.6603C61.6838 11.7822 60.9435 10.0166 59.5992 8.68859L52.8894 2.05938C51.5453 0.73125 49.7579 0 47.8569 0H7.12017C3.19586 0 0.00317383 3.15422 0.00317383 7.03125V72.9688C0.00317383 76.8458 3.19586 80 7.12017 80H54.5668C58.4911 80 61.6838 76.8458 61.6838 72.9688V52.1298L78.8867 35.1198C81.6682 32.372 81.6688 27.9242 78.8869 25.1761ZM47.45 4.6875C47.8982 4.6875 48.7619 4.61078 49.5345 5.37391L56.2444 12.0031C56.9972 12.747 56.9393 13.5622 56.9393 14.0625H47.45V4.6875ZM56.9392 72.9688C56.9392 74.2611 55.8751 75.3125 54.5668 75.3125H7.12017C5.81207 75.3125 4.74784 74.2611 4.74784 72.9688V7.03125C4.74784 5.73891 5.81207 4.6875 7.12017 4.6875H42.7052V16.4062C42.7052 17.7006 43.7673 18.75 45.0775 18.75H56.9392V36.9255C56.9392 36.9255 49.9401 43.8461 49.9398 43.8462L46.5865 47.1594C46.3261 47.4166 46.1297 47.7303 46.0133 48.0755L42.6582 58.0192C42.374 58.8614 42.5959 59.79 43.2313 60.4177C43.8676 61.0462 44.8078 61.2644 45.659 60.9839L55.724 57.6694C56.0734 57.5544 56.391 57.3605 56.6513 57.1031L56.9392 56.8188V72.9688ZM51.6188 48.8167L54.9738 52.1313L53.6922 53.3973L48.6599 55.0545L50.3373 50.0827L51.6188 48.8167ZM58.3281 48.8159L54.9731 45.5014C56.7596 43.735 64.6941 35.8894 66.3769 34.2255L69.7319 37.54L58.3281 48.8159ZM75.5311 31.8059L73.0856 34.2241L69.7306 30.9095L72.177 28.4906C73.1025 27.5767 74.6072 27.5769 75.5321 28.4906C76.4568 29.4047 76.4617 30.8864 75.5311 31.8059Z" fill="white"/>
<path d="M45.0772 23.4375H11.8645C10.5544 23.4375 9.49219 24.4869 9.49219 25.7812C9.49219 27.0756 10.5544 28.125 11.8645 28.125H45.0772C46.3873 28.125 47.4495 27.0756 47.4495 25.7812C47.4495 24.4869 46.3873 23.4375 45.0772 23.4375Z" fill="white"/>
<path d="M35.5878 32.8125H11.8645C10.5544 32.8125 9.49219 33.8619 9.49219 35.1562C9.49219 36.4506 10.5544 37.5 11.8645 37.5H35.5878C36.898 37.5 37.9602 36.4506 37.9602 35.1562C37.9602 33.8619 36.898 32.8125 35.5878 32.8125Z" fill="white"/>
<path d="M35.5878 42.1875H11.8645C10.5544 42.1875 9.49219 43.2369 9.49219 44.5312C9.49219 45.8256 10.5544 46.875 11.8645 46.875H35.5878C36.898 46.875 37.9602 45.8256 37.9602 44.5312C37.9602 43.2369 36.898 42.1875 35.5878 42.1875Z" fill="white"/>
<path d="M35.5878 51.5625H11.8645C10.5544 51.5625 9.49219 52.6119 9.49219 53.9062C9.49219 55.2006 10.5544 56.25 11.8645 56.25H35.5878C36.898 56.25 37.9602 55.2006 37.9602 53.9062C37.9602 52.6119 36.898 51.5625 35.5878 51.5625Z" fill="white"/>
<path d="M45.0773 65.9375H30.8433C29.5331 65.9375 28.4709 66.9869 28.4709 68.2812C28.4709 69.5756 29.5331 70.625 30.8433 70.625H45.0773C46.3874 70.625 47.4496 69.5756 47.4496 68.2812C47.4496 66.9869 46.3874 65.9375 45.0773 65.9375Z" fill="white"/>
</g>
<defs>
<clipPath id="clip0_109_114">
<rect width="80.9756" height="80" fill="white"/>
</clipPath>
</defs>
</svg>
