<svg width="87" height="86" viewBox="0 0 87 86" fill="none" xmlns="http://www.w3.org/2000/svg">
<path d="M80.2064 61.4578H77.674V58.297C77.674 50.8129 71.5145 44.7246 63.9436 44.7246H58.6259H46.6181V33.0351H54.2136C57.9595 33.0351 61.007 30.0226 61.007 26.3196V10.0185C61.007 6.31567 57.9595 3.30298 54.2136 3.30298H33.9203C30.1744 3.30298 27.1268 6.3155 27.1268 10.0185V26.3194C27.1268 30.0223 30.1744 33.035 33.9203 33.035H41.5158V44.7244H29.678H23.1695C15.5985 44.7244 9.4395 50.8129 9.4395 58.2968V61.4576H6.79365C3.04755 61.4578 0 64.4703 0 68.1734V75.9816C0 79.6844 3.04755 82.6969 6.79365 82.6969H17.1871C20.933 82.6969 23.9806 79.6844 23.9806 75.9816V68.1734C23.9806 64.4703 20.933 61.4578 17.1871 61.4578H14.5416V58.297C14.5416 53.5943 18.4121 49.7683 23.1694 49.7683H29.6779H41.5157V61.4578H38.8701C35.124 61.4578 32.0765 64.4703 32.0765 68.1734V75.9816C32.0765 79.6844 35.124 82.6969 38.8701 82.6969H49.2636C53.0095 82.6969 56.0571 79.6844 56.0571 75.9816V68.1734C56.0571 64.4703 53.0095 61.4578 49.2636 61.4578H46.6181V49.7683H58.6261H63.944C68.7015 49.7683 72.5719 53.5943 72.5719 58.297V61.4578H69.8129C66.067 61.4578 63.0194 64.4703 63.0194 68.1734V75.9816C63.0194 79.6844 66.067 82.6969 69.8129 82.6969H80.2064C83.9525 82.6969 87 79.6844 87 75.9816V68.1734C87 64.4703 83.9525 61.4578 80.2064 61.4578ZM17.1873 66.5014C18.1198 66.5014 18.8785 67.2515 18.8785 68.1734V75.9816C18.8785 76.9034 18.1198 77.6533 17.1873 77.6533H6.79382C5.86128 77.6533 5.10241 76.9034 5.10241 75.9816V68.1734C5.10241 67.2515 5.86128 66.5014 6.79382 66.5014H17.1873ZM49.2638 66.5014C50.1963 66.5014 50.955 67.2515 50.955 68.1734V75.9816C50.955 76.9034 50.1963 77.6533 49.2638 77.6533H38.8703C37.9378 77.6533 37.1789 76.9034 37.1789 75.9816V68.1734C37.1789 67.2515 37.9378 66.5014 38.8703 66.5014H49.2638ZM33.9203 27.9915C32.9878 27.9915 32.2291 27.2414 32.2291 26.3196V10.0185C32.2291 9.09673 32.9878 8.34658 33.9203 8.34658H54.2134C55.1459 8.34658 55.9046 9.09656 55.9046 10.0185V26.3194C55.9046 27.2412 55.1459 27.9914 54.2134 27.9914H33.9203V27.9915ZM81.8978 75.9817C81.8978 76.9035 81.1389 77.6535 80.2064 77.6535H69.8129C68.8804 77.6535 68.1217 76.9035 68.1217 75.9817V68.1735C68.1217 67.2517 68.8804 66.5016 69.8129 66.5016H80.2064C81.1389 66.5016 81.8978 67.2515 81.8978 68.1735V75.9817Z" fill="white"/>
</svg>
