<svg width="79" height="80" viewBox="0 0 79 80" fill="none" xmlns="http://www.w3.org/2000/svg">
<g clip-path="url(#clip0_109_103)">
<path d="M73.0363 0H47.3692C46.091 0 45.0547 1.04937 45.0547 2.34375V13.1184C45.0547 14.0428 45.5914 14.8809 46.4247 15.2581C47.2581 15.6355 48.2326 15.4814 48.9129 14.8645C49.5272 14.3078 50.3204 14.0183 51.1488 14.052C52.7844 14.1175 54.114 15.4662 54.1757 17.1225C54.2085 18.003 53.8958 18.8358 53.2949 19.4677C52.6937 20.1002 51.8851 20.4484 51.0181 20.4484C50.2405 20.4486 49.4926 20.1591 48.9128 19.6333C48.2328 19.017 47.2581 18.8623 46.4246 19.2398C45.5912 19.617 45.0546 20.4552 45.0546 21.3795V32.0312C45.0546 33.3256 46.0908 34.375 47.369 34.375H54.2917C54.1987 34.9203 54.1619 35.4791 54.1842 36.0442C54.3437 40.1311 57.6305 43.4538 61.6668 43.6081C61.7686 43.612 61.87 43.6139 61.9715 43.6139C63.9965 43.6139 65.9029 42.8373 67.3682 41.4087C68.9075 39.908 69.755 37.89 69.755 35.7269C69.755 35.2706 69.7161 34.8186 69.6401 34.3752H76.6856C77.9638 34.3752 79 33.3258 79 32.0314V6.03922C79 2.70922 76.3247 0 73.0363 0V0ZM74.3711 29.6875H66.0456C65.1326 29.6875 64.3051 30.2309 63.9326 31.075C63.5602 31.9189 63.7123 32.9059 64.3213 33.5947C64.8404 34.1817 65.1263 34.9391 65.1263 35.7269C65.1263 36.6044 64.7823 37.4231 64.1578 38.0322C63.5339 38.6406 62.7145 38.9559 61.8419 38.9241C60.2062 38.8616 58.8745 37.515 58.8098 35.8591C58.7771 35.0211 59.0621 34.2169 59.612 33.5947C60.2209 32.9059 60.3732 31.9189 60.0007 31.075C59.6282 30.2311 58.8003 29.6875 57.8874 29.6875H49.6836V25.0198C50.1214 25.0967 50.5674 25.1361 51.0177 25.1361H51.0186C53.1548 25.1361 55.1476 24.2778 56.6295 22.7191C58.111 21.1611 58.8823 19.1106 58.8013 16.9456C58.6489 12.8583 55.3678 9.52984 51.3317 9.36828C50.773 9.34547 50.2218 9.38328 49.6836 9.47734V4.6875H73.0363C73.7725 4.6875 74.3711 5.29391 74.3711 6.03922V29.6875Z" fill="white"/>
<path d="M60.9473 45.625H50.3073C49.3943 45.625 48.5668 46.1684 48.1943 47.0125C47.8218 47.8564 47.974 48.8434 48.583 49.5322C49.1021 50.1192 49.388 50.8766 49.388 51.6644C49.388 52.5419 49.044 53.3606 48.4194 53.9697C47.7955 54.5781 46.9771 54.8927 46.1036 54.8616C44.4679 54.7991 43.1362 53.4525 43.0715 51.7964C43.0388 50.9586 43.3238 50.1544 43.8737 49.5322C44.4826 48.8434 44.6348 47.8564 44.2624 47.0125C43.8899 46.1686 43.0619 45.625 42.1491 45.625H33.9453V40.9584C34.4838 41.0525 35.0357 41.09 35.5935 41.0673C39.6295 40.9058 42.9106 37.5773 43.063 33.49C43.1439 31.325 42.3725 29.2745 40.8911 27.7166C39.4091 26.1578 37.4164 25.2995 35.2803 25.2995C34.8297 25.2995 34.3834 25.3389 33.9455 25.4159V18.2812C33.9455 16.9869 32.9092 15.9375 31.631 15.9375H5.96373C2.67535 15.9375 0 18.6467 0 21.9767V73.9606C0 77.2908 2.67535 80 5.96373 80H57.2978C60.5864 80 63.2617 77.2908 63.2617 73.9608V47.9688C63.2617 46.6744 62.2255 45.625 60.9473 45.625ZM4.62891 21.9767C4.62891 21.2313 5.22773 20.625 5.96373 20.625H29.3164V29.0559C29.3164 29.9805 29.8531 30.8184 30.6866 31.1956C31.5198 31.5731 32.4948 31.4187 33.1748 30.802C33.7544 30.2764 34.5023 29.9869 35.2803 29.9869C36.1468 29.9869 36.9553 30.3352 37.5568 30.9677C38.1576 31.5995 38.4704 32.4323 38.4375 33.3128C38.3758 34.9691 37.0461 36.3178 35.4107 36.3833C34.5835 36.4163 33.7892 36.1278 33.1748 35.5709C32.4946 34.9545 31.5202 34.8 30.6866 35.1773C29.8532 35.5545 29.3166 36.3927 29.3166 37.317V45.625H24.7073C24.7832 45.1816 24.822 44.7295 24.822 44.2733C24.822 42.11 23.9745 40.092 22.4352 38.5914C20.8967 37.0911 18.8707 36.3073 16.734 36.392C12.6977 36.5464 9.41088 39.8691 9.25133 43.9561C9.22927 44.5209 9.26614 45.0798 9.35888 45.6252H4.62891V21.9767ZM4.62891 73.9608V50.3125H12.9545C13.8674 50.3125 14.6949 49.7691 15.0674 48.925C15.4399 48.0811 15.2877 47.0941 14.6786 46.4053C14.1287 45.7833 13.8437 44.9791 13.8764 44.1413C13.941 42.485 15.2729 41.1386 16.9085 41.0761C17.7759 41.0459 18.6002 41.3594 19.2243 41.968C19.8489 42.5769 20.1928 43.3956 20.1928 44.2733C20.1928 45.0613 19.9069 45.8184 19.3879 46.4055C18.7792 47.0942 18.6269 48.0812 18.9993 48.9252C19.3718 49.7691 20.1998 50.3125 21.1126 50.3125H29.3164V54.9791C28.7779 54.885 28.226 54.8477 27.6682 54.8702C23.6323 55.0317 20.3511 58.3602 20.1987 62.4475C20.1178 64.6125 20.8892 66.663 22.3706 68.2209C23.8526 69.7797 25.8453 70.638 27.9814 70.638C28.432 70.638 28.8784 70.5986 29.3163 70.5216V75.3125H5.96373C5.22773 75.3125 4.62891 74.7061 4.62891 73.9608ZM58.6328 73.9608C58.6328 74.7062 58.034 75.3125 57.298 75.3125H33.9453V66.8816C33.9453 65.957 33.4087 65.1191 32.5752 64.7419C31.742 64.3645 30.7671 64.5189 30.087 65.1355C29.5073 65.6611 28.7594 65.9506 27.9814 65.9506C27.1149 65.9506 26.3064 65.6023 25.7049 64.9698C25.1041 64.338 24.7913 63.5052 24.8242 62.6247C24.8859 60.9684 26.2157 59.6197 27.851 59.5542C28.6764 59.5211 29.4724 59.8097 30.087 60.3666C30.7671 60.9831 31.7415 61.1377 32.5752 60.7602C33.4085 60.383 33.9452 59.5448 33.9452 58.6205V50.3125H38.5534C38.4605 50.8577 38.4238 51.4166 38.4458 51.9816C38.6054 56.0686 41.8922 59.3913 45.9285 59.5456C48.0655 59.6297 50.0912 58.8464 51.6297 57.3462C53.169 55.8455 54.0166 53.8275 54.0166 51.6644C54.0166 51.2081 53.9777 50.7561 53.9016 50.3127H58.6328V73.9608Z" fill="white"/>
</g>
<defs>
<clipPath id="clip0_109_103">
<rect width="79" height="80" fill="white"/>
</clipPath>
</defs>
</svg>
