<svg width="81" height="82" viewBox="0 0 81 82" fill="none" xmlns="http://www.w3.org/2000/svg">
<g clip-path="url(#clip0_107_73)">
<path d="M78.627 38.5976H77.1871V38.4268C77.1871 32.4279 73.8568 27.6082 69.5179 25.1364C71.8792 23.0437 73.3747 19.9738 73.3747 16.5549C73.3747 10.2644 68.319 5.14624 62.1052 5.14624C55.8914 5.14624 50.8357 10.2644 50.8357 16.5549C50.8357 19.9738 52.3312 23.0437 54.6919 25.1364C50.3432 27.6125 47.0234 32.4441 47.0234 38.4268V38.5976H26.0263C23.8466 36.9817 21.1621 36.0245 18.2595 36.0245C10.9945 36.0245 5.08351 42.0078 5.08351 49.3631C5.08351 53.6955 7.13583 57.5511 10.3073 59.9891C4.19362 63.1597 0 69.606 0 77.0245V79.5976C0 80.9245 1.06231 82 2.37305 82H35.4165C36.7272 82 37.7895 80.9245 37.7895 79.5976V77.0245C37.7895 75.1802 37.5294 73.396 37.0461 71.7074H76.2539V74.4514C76.2539 75.7776 77.3162 76.8537 78.627 76.8537C79.9377 76.8537 81 75.7776 81 74.4514V41C81 39.673 79.9377 38.5976 78.627 38.5976ZM55.5818 16.5549C55.5818 12.9138 58.508 9.95093 62.1052 9.95093C65.7019 9.95093 68.6286 12.9138 68.6286 16.5549C68.6286 20.1959 65.7025 23.1588 62.1052 23.1588C58.5086 23.1588 55.5818 20.1959 55.5818 16.5549ZM51.7695 38.4268C51.7695 32.5567 56.4903 27.9635 62.1052 27.9635C67.7041 27.9635 72.441 32.5398 72.441 38.4268V38.5976H51.7695V38.4268ZM18.2595 40.8292C22.9073 40.8292 26.6887 44.6573 26.6887 49.3631C26.6887 54.0683 22.9073 57.8965 18.2595 57.8965C13.611 57.8965 9.82961 54.0683 9.82961 49.3631C9.82961 44.6573 13.611 40.8292 18.2595 40.8292ZM33.0434 77.1953H4.74609V77.0245C4.74609 69.1268 11.0934 62.7011 18.8948 62.7011C26.6962 62.7011 33.0434 69.1268 33.0434 77.0245V77.1953ZM26.6918 59.6019C29.5883 57.1532 31.4348 53.4728 31.4348 49.3631C31.4348 47.221 30.9312 45.1978 30.0413 43.4023H76.2539V66.9027H34.9202C32.9532 63.7234 30.0907 61.1671 26.6918 59.6019Z" fill="white"/>
<path d="M8.72774 31.8229H43.0418C44.9328 31.8229 46.0668 29.6833 45.0162 28.088L40.3313 20.9742V8.83549C40.3313 3.99265 36.472 0 31.6035 0H8.72774C3.88525 0 0 3.96825 0 8.83549V22.9881C0 27.844 3.87103 31.8229 8.72774 31.8229ZM4.74609 8.83549C4.74609 6.63647 6.49374 4.80469 8.72774 4.80469H31.6035C33.8153 4.80469 35.5852 6.60645 35.5852 8.83549V21.7012C35.5852 22.1754 35.7236 22.639 35.9838 23.0337L38.6077 27.0182H8.72774C6.51599 27.0182 4.74609 25.2165 4.74609 22.9874V8.83549Z" fill="white"/>
<path d="M12.5393 13.811H27.7905C29.1006 13.811 30.1635 12.735 30.1635 11.4087C30.1635 10.0818 29.1006 9.00635 27.7905 9.00635H12.5393C11.2292 9.00635 10.1663 10.0818 10.1663 11.4087C10.1663 12.735 11.2286 13.811 12.5393 13.811Z" fill="white"/>
<path d="M12.5393 22.8173H20.1652C21.4753 22.8173 22.5382 21.7412 22.5382 20.4149C22.5382 19.088 21.4753 18.0126 20.1652 18.0126H12.5393C11.2292 18.0126 10.1663 19.088 10.1663 20.4149C10.1663 21.7412 11.2286 22.8173 12.5393 22.8173Z" fill="white"/>
</g>
<defs>
<clipPath id="clip0_107_73">
<rect width="81" height="82" fill="white"/>
</clipPath>
</defs>
</svg>
