<svg width="85" height="86" viewBox="0 0 85 86" fill="none" xmlns="http://www.w3.org/2000/svg">
<path d="M77.1752 5.375H39.8327C35.5183 5.375 32.0079 8.92662 32.0079 13.2918V37.5285L25.0742 34.0399C24.8401 33.9218 24.6021 33.8103 24.3621 33.7046C26.3978 31.5545 27.6526 28.6413 27.6526 25.4361C27.6526 18.8387 22.3479 13.471 15.8273 13.471C9.30595 13.471 4.00124 18.8387 4.00124 25.4361C4.00124 29.0212 5.56995 32.2415 8.04722 34.4362C3.48503 37.0332 0 42.0991 0 48.375V56.471C0 59.9563 2.23667 62.9227 5.33455 63.9771V78.0609C5.33455 79.4518 6.44932 80.5804 7.82478 80.5804H23.8284C25.2039 80.5804 26.3187 79.4518 26.3187 78.0609V49.7522L34.2913 53.7848C37.3425 55.328 41.4812 54.4081 43.3528 50.8945H52.2813L42.8268 77.1994C42.3567 78.507 43.024 79.9531 44.3164 80.4282C45.7937 80.9721 47.1076 80.0345 47.5077 78.9217L57.5808 50.8945H59.3266L69.5028 78.9296C69.8893 79.9931 71.1935 80.9852 72.6993 80.4255C73.9898 79.9459 74.6526 78.4985 74.1779 77.1921L64.632 50.8945H77.1752C81.406 50.8945 85 47.4413 85 42.9777V13.2918C85 8.82755 81.406 5.375 77.1752 5.375ZM8.9817 25.4361C8.9817 21.6168 12.0523 18.51 15.8266 18.51C19.6015 18.51 22.6722 21.6168 22.6722 25.4361C22.6722 29.2548 19.6015 32.3615 15.8266 32.3615C12.0523 32.3615 8.9817 29.2548 8.9817 25.4361ZM39.0967 48.2005C39.0902 48.2188 39.0837 48.2379 39.0779 48.2569C38.908 48.7365 38.5241 49.1407 38.0539 49.3362C37.5565 49.5409 36.9968 49.5193 36.5189 49.2778C31.7836 46.881 24.9413 43.4225 24.9413 43.4225C23.2889 42.5866 21.3382 43.8044 21.3382 45.6763V75.5413H10.315V61.8683C10.315 60.4773 9.1996 59.3487 7.82478 59.3487C6.25607 59.3487 4.98047 58.0581 4.98047 56.471V48.375C4.98047 42.2186 9.935 37.4013 15.8266 37.4013H18.027C19.6962 37.4013 21.3635 37.7976 22.8531 38.5501C22.8531 38.5501 35.205 44.765 38.3509 46.3502C39.0247 46.6888 39.3451 47.484 39.0967 48.2005ZM80.0195 42.9777C80.0195 43.7473 79.7245 44.4697 79.1875 45.013C78.659 45.5484 77.9255 45.8555 77.1752 45.8555H43.8943C43.8897 45.8417 43.8865 45.8279 43.882 45.8148L50.0621 33.3096C50.6769 32.065 50.1789 30.5519 48.9487 29.9293C47.7191 29.3073 46.223 29.8112 45.6076 31.0558L40.3366 41.7212C39.3541 41.2258 38.2121 40.6504 36.9884 40.035V13.2918C36.9884 11.7053 38.264 10.4141 39.8327 10.4141H77.1752C77.9255 10.4141 78.659 10.7211 79.1882 11.2578C79.7245 11.7998 80.0195 12.5222 80.0195 13.2918V42.9777Z" fill="white"/>
<path d="M71.8406 16.1697H45.1672C43.7918 16.1697 42.677 17.2976 42.677 18.6892C42.677 20.0809 43.7918 21.2087 45.1672 21.2087H71.8406C73.2154 21.2087 74.3309 20.0809 74.3309 18.6892C74.3309 17.2976 73.2161 16.1697 71.8406 16.1697Z" fill="white"/>
<path d="M71.8415 25.6152H58.5045C57.1297 25.6152 56.0143 26.7431 56.0143 28.1348C56.0143 29.5264 57.1297 30.6543 58.5045 30.6543H71.8415C73.2164 30.6543 74.3318 29.5264 74.3318 28.1348C74.3318 26.7431 73.217 25.6152 71.8415 25.6152Z" fill="white"/>
<path d="M71.8415 35.061H58.5045C57.1297 35.061 56.0143 36.1889 56.0143 37.5806C56.0143 38.9716 57.1297 40.1001 58.5045 40.1001H71.8415C73.2164 40.1001 74.3318 38.9716 74.3318 37.5806C74.3318 36.1889 73.217 35.061 71.8415 35.061Z" fill="white"/>
</svg>
