<svg width="79" height="80" viewBox="0 0 79 80" fill="none" xmlns="http://www.w3.org/2000/svg">
<g clip-path="url(#clip0_109_106)">
<path d="M72.5195 17.9688V10.1562C72.5195 4.55609 68.0204 0 62.4902 0H10.0293C4.49914 0 0 4.55609 0 10.1562V77.6562C0 78.9506 1.03626 80 2.31445 80H54.7754C56.0536 80 57.0898 78.9506 57.0898 77.6562V20.3125H70.2051C71.4833 20.3125 72.5195 19.2631 72.5195 17.9688ZM52.4609 75.3125H4.62891V10.1562C4.62891 7.14078 7.05152 4.6875 10.0293 4.6875H54.0457C53.0445 6.2675 52.4609 8.14359 52.4609 10.1562V75.3125ZM67.8906 15.625H57.0898V10.1562C57.0898 7.14078 59.5125 4.6875 62.4902 4.6875C65.468 4.6875 67.8906 7.14078 67.8906 10.1562V15.625Z" fill="white"/>
<path d="M45.5176 9.375H11.5723C10.2941 9.375 9.25781 10.4244 9.25781 11.7188V46.0938C9.25781 47.3881 10.2941 48.4375 11.5723 48.4375H45.5176C46.7958 48.4375 47.832 47.3881 47.832 46.0938V11.7188C47.832 10.4244 46.7958 9.375 45.5176 9.375ZM43.2031 43.75H13.8867V14.0625H43.2031V43.75Z" fill="white"/>
<path d="M21.1113 37.1215C21.4926 37.3723 21.9314 37.5001 22.3727 37.5001C22.6918 37.5001 23.0121 37.4332 23.3125 37.2981L37.1993 31.0481C38.0351 30.672 38.5737 29.8326 38.5737 28.9063C38.5737 27.9801 38.0351 27.1407 37.1993 26.7646L23.3125 20.5146C22.5966 20.1921 21.7683 20.2588 21.1113 20.6912C20.4543 21.1235 20.0581 21.8631 20.0581 22.6563V35.1563C20.0581 35.9496 20.4543 36.6893 21.1113 37.1215ZM24.687 26.2627L30.5605 28.9063L24.687 31.5499V26.2627Z" fill="white"/>
<path d="M45.5176 56.25H11.5723C10.2941 56.25 9.25781 57.2994 9.25781 58.5938C9.25781 59.8881 10.2941 60.9375 11.5723 60.9375H45.5176C46.7958 60.9375 47.832 59.8881 47.832 58.5938C47.832 57.2994 46.7958 56.25 45.5176 56.25Z" fill="white"/>
<path d="M45.5176 65.625H11.5723C10.2941 65.625 9.25781 66.6744 9.25781 67.9688C9.25781 69.2631 10.2941 70.3125 11.5723 70.3125H45.5176C46.7958 70.3125 47.832 69.2631 47.832 67.9688C47.832 66.6744 46.7958 65.625 45.5176 65.625Z" fill="white"/>
<path d="M73.6001 25.3125H70.5142C67.5364 25.3125 65.1138 27.7658 65.1138 30.7812V65.1562C65.1138 65.4373 65.1636 65.7161 65.2611 65.9792L69.89 78.4792C70.2287 79.3939 71.0923 80 72.0571 80C73.0219 80 73.8855 79.3939 74.2242 78.4792L78.8531 65.9792C78.9507 65.7161 79.0005 65.4373 79.0005 65.1562V30.7812C79.0005 27.7658 76.5779 25.3125 73.6001 25.3125ZM69.7427 62.8125V39.375H74.3716V62.8125H69.7427ZM70.5142 30H73.6001C74.0255 30 74.3716 30.3505 74.3716 30.7812V34.6875H69.7427V30.7812C69.7427 30.3505 70.0888 30 70.5142 30ZM70.768 67.5H73.3463L72.0571 70.9813L70.768 67.5Z" fill="white"/>
</g>
<defs>
<clipPath id="clip0_109_106">
<rect width="79" height="80" fill="white"/>
</clipPath>
</defs>
</svg>
